<mxfile host="app.diagrams.net" modified="2024-05-15T08:59:35.057Z" agent="Mozilla/5.0 (X11; Ubuntu; Linux x86_64; rv:125.0) Gecko/20100101 Firefox/125.0" etag="P9j6kvCgwSQVxUgh8jsi" version="24.4.0" type="device">
  <diagram name="Page-1" id="UFcKEp5HDD3tKtdkF1ra">
    <mxGraphModel dx="1274" dy="1751" grid="1" gridSize="10" guides="1" tooltips="1" connect="1" arrows="1" fold="1" page="1" pageScale="1" pageWidth="850" pageHeight="1100" math="0" shadow="0">
      <root>
        <mxCell id="0" />
        <mxCell id="1" parent="0" />
        <mxCell id="qOj0G72neCXMJLTEVKNi-1" value="Generate Key Pair" style="rounded=1;whiteSpace=wrap;html=1;arcSize=40;fontColor=#000000;fillColor=#ffffc0;strokeColor=#ff0000;" vertex="1" parent="1">
          <mxGeometry x="410" y="-170" width="120" height="40" as="geometry" />
        </mxCell>
        <mxCell id="qOj0G72neCXMJLTEVKNi-2" value="" style="edgeStyle=orthogonalEdgeStyle;html=1;verticalAlign=bottom;endArrow=open;endSize=8;strokeColor=#ff0000;rounded=0;entryX=0.5;entryY=0;entryDx=0;entryDy=0;" edge="1" source="qOj0G72neCXMJLTEVKNi-1" parent="1" target="qOj0G72neCXMJLTEVKNi-3">
          <mxGeometry relative="1" as="geometry">
            <mxPoint x="120" y="290" as="targetPoint" />
          </mxGeometry>
        </mxCell>
        <mxCell id="qOj0G72neCXMJLTEVKNi-3" value="Exchange Keys" style="rounded=1;whiteSpace=wrap;html=1;arcSize=40;fontColor=#000000;fillColor=#ffffc0;strokeColor=#ff0000;" vertex="1" parent="1">
          <mxGeometry x="410" y="-60" width="120" height="40" as="geometry" />
        </mxCell>
        <mxCell id="qOj0G72neCXMJLTEVKNi-4" value="" style="edgeStyle=orthogonalEdgeStyle;html=1;verticalAlign=bottom;endArrow=open;endSize=8;strokeColor=#ff0000;rounded=0;entryX=0.5;entryY=0;entryDx=0;entryDy=0;" edge="1" parent="1" source="qOj0G72neCXMJLTEVKNi-3" target="qOj0G72neCXMJLTEVKNi-5">
          <mxGeometry relative="1" as="geometry">
            <mxPoint x="130" y="300" as="targetPoint" />
          </mxGeometry>
        </mxCell>
        <mxCell id="qOj0G72neCXMJLTEVKNi-5" value="Authenticate" style="rounded=1;whiteSpace=wrap;html=1;arcSize=40;fontColor=#000000;fillColor=#ffffc0;strokeColor=#ff0000;" vertex="1" parent="1">
          <mxGeometry x="410" y="30" width="120" height="40" as="geometry" />
        </mxCell>
        <mxCell id="qOj0G72neCXMJLTEVKNi-7" value="Encrypt File" style="rounded=1;whiteSpace=wrap;html=1;arcSize=40;fontColor=#000000;fillColor=#ffffc0;strokeColor=#ff0000;" vertex="1" parent="1">
          <mxGeometry x="410" y="100" width="120" height="40" as="geometry" />
        </mxCell>
        <mxCell id="qOj0G72neCXMJLTEVKNi-8" value="" style="edgeStyle=orthogonalEdgeStyle;html=1;verticalAlign=bottom;endArrow=open;endSize=8;strokeColor=#ff0000;rounded=0;entryX=0.5;entryY=0;entryDx=0;entryDy=0;" edge="1" parent="1" source="qOj0G72neCXMJLTEVKNi-7" target="qOj0G72neCXMJLTEVKNi-9">
          <mxGeometry relative="1" as="geometry">
            <mxPoint x="150" y="300" as="targetPoint" />
          </mxGeometry>
        </mxCell>
        <mxCell id="qOj0G72neCXMJLTEVKNi-9" value="Sign File" style="rounded=1;whiteSpace=wrap;html=1;arcSize=40;fontColor=#000000;fillColor=#ffffc0;strokeColor=#ff0000;" vertex="1" parent="1">
          <mxGeometry x="410" y="200" width="120" height="40" as="geometry" />
        </mxCell>
        <mxCell id="qOj0G72neCXMJLTEVKNi-11" value="Transmit File" style="rounded=1;whiteSpace=wrap;html=1;arcSize=40;fontColor=#000000;fillColor=#ffffc0;strokeColor=#ff0000;" vertex="1" parent="1">
          <mxGeometry x="410" y="280" width="120" height="40" as="geometry" />
        </mxCell>
        <mxCell id="qOj0G72neCXMJLTEVKNi-12" value="" style="edgeStyle=orthogonalEdgeStyle;html=1;verticalAlign=bottom;endArrow=open;endSize=8;strokeColor=#ff0000;rounded=0;entryX=0.5;entryY=0;entryDx=0;entryDy=0;" edge="1" parent="1" source="qOj0G72neCXMJLTEVKNi-11" target="qOj0G72neCXMJLTEVKNi-13">
          <mxGeometry relative="1" as="geometry">
            <mxPoint x="490" y="400" as="targetPoint" />
          </mxGeometry>
        </mxCell>
        <mxCell id="qOj0G72neCXMJLTEVKNi-13" value="Verify Signature" style="rounded=1;whiteSpace=wrap;html=1;arcSize=40;fontColor=#000000;fillColor=#ffffc0;strokeColor=#ff0000;" vertex="1" parent="1">
          <mxGeometry x="420" y="370" width="120" height="40" as="geometry" />
        </mxCell>
        <mxCell id="qOj0G72neCXMJLTEVKNi-14" value="" style="edgeStyle=orthogonalEdgeStyle;html=1;verticalAlign=bottom;endArrow=open;endSize=8;strokeColor=#ff0000;rounded=0;entryX=0.5;entryY=0;entryDx=0;entryDy=0;" edge="1" parent="1" source="qOj0G72neCXMJLTEVKNi-13" target="qOj0G72neCXMJLTEVKNi-15">
          <mxGeometry relative="1" as="geometry">
            <mxPoint x="500" y="370" as="targetPoint" />
          </mxGeometry>
        </mxCell>
        <mxCell id="qOj0G72neCXMJLTEVKNi-15" value="Decrypt File" style="rounded=1;whiteSpace=wrap;html=1;arcSize=40;fontColor=#000000;fillColor=#ffffc0;strokeColor=#ff0000;" vertex="1" parent="1">
          <mxGeometry x="420" y="460" width="120" height="40" as="geometry" />
        </mxCell>
        <mxCell id="qOj0G72neCXMJLTEVKNi-16" value="" style="edgeStyle=orthogonalEdgeStyle;html=1;verticalAlign=bottom;endArrow=open;endSize=8;strokeColor=#ff0000;rounded=0;entryX=0.5;entryY=0;entryDx=0;entryDy=0;" edge="1" parent="1" source="qOj0G72neCXMJLTEVKNi-15" target="qOj0G72neCXMJLTEVKNi-17">
          <mxGeometry relative="1" as="geometry">
            <mxPoint x="470" y="550" as="targetPoint" />
          </mxGeometry>
        </mxCell>
        <mxCell id="qOj0G72neCXMJLTEVKNi-17" value="Download File" style="rounded=1;whiteSpace=wrap;html=1;arcSize=40;fontColor=#000000;fillColor=#ffffc0;strokeColor=#ff0000;" vertex="1" parent="1">
          <mxGeometry x="420" y="560" width="120" height="40" as="geometry" />
        </mxCell>
        <mxCell id="qOj0G72neCXMJLTEVKNi-18" value="" style="edgeStyle=orthogonalEdgeStyle;html=1;verticalAlign=bottom;endArrow=open;endSize=8;strokeColor=#ff0000;rounded=0;" edge="1" parent="1" source="qOj0G72neCXMJLTEVKNi-17">
          <mxGeometry relative="1" as="geometry">
            <mxPoint x="470" y="690" as="targetPoint" />
          </mxGeometry>
        </mxCell>
        <mxCell id="qOj0G72neCXMJLTEVKNi-20" value="" style="edgeStyle=orthogonalEdgeStyle;html=1;verticalAlign=bottom;endArrow=open;endSize=8;strokeColor=#ff0000;rounded=0;exitX=0.5;exitY=1;exitDx=0;exitDy=0;entryX=0.442;entryY=-0.05;entryDx=0;entryDy=0;entryPerimeter=0;" edge="1" parent="1" source="qOj0G72neCXMJLTEVKNi-9" target="qOj0G72neCXMJLTEVKNi-11">
          <mxGeometry relative="1" as="geometry">
            <mxPoint x="450" y="290" as="targetPoint" />
            <mxPoint x="470" y="150" as="sourcePoint" />
            <Array as="points">
              <mxPoint x="470" y="260" />
              <mxPoint x="473" y="260" />
            </Array>
          </mxGeometry>
        </mxCell>
        <mxCell id="qOj0G72neCXMJLTEVKNi-26" value="" style="ellipse;html=1;shape=startState;fillColor=#000000;strokeColor=#ff0000;" vertex="1" parent="1">
          <mxGeometry x="450" y="-260" width="30" height="30" as="geometry" />
        </mxCell>
        <mxCell id="qOj0G72neCXMJLTEVKNi-27" value="" style="edgeStyle=orthogonalEdgeStyle;html=1;verticalAlign=bottom;endArrow=open;endSize=8;strokeColor=#ff0000;rounded=0;" edge="1" source="qOj0G72neCXMJLTEVKNi-26" parent="1">
          <mxGeometry relative="1" as="geometry">
            <mxPoint x="465" y="-170" as="targetPoint" />
          </mxGeometry>
        </mxCell>
        <mxCell id="qOj0G72neCXMJLTEVKNi-28" value="&lt;h3 style=&quot;font-size: 16px;&quot;&gt;Activity Diagram&lt;/h3&gt;&lt;p style=&quot;font-size: 16px;&quot;&gt;The Activity Diagram models the workflow and activities within the system, incorporating secure key exchange, encryption, signing, and transmission.&lt;/p&gt;&lt;p style=&quot;font-size: 16px;&quot;&gt;&lt;strong style=&quot;font-size: 16px;&quot;&gt;Activities&lt;/strong&gt;:&lt;/p&gt;&lt;ul style=&quot;font-size: 16px;&quot;&gt;&lt;li style=&quot;font-size: 16px;&quot;&gt;Generate Key Pair&lt;/li&gt;&lt;li style=&quot;font-size: 16px;&quot;&gt;Exchange Keys&lt;/li&gt;&lt;li style=&quot;font-size: 16px;&quot;&gt;Authenticate&lt;/li&gt;&lt;li style=&quot;font-size: 16px;&quot;&gt;Encrypt File&lt;/li&gt;&lt;li style=&quot;font-size: 16px;&quot;&gt;Sign File&lt;/li&gt;&lt;li style=&quot;font-size: 16px;&quot;&gt;Transmit File&lt;/li&gt;&lt;li style=&quot;font-size: 16px;&quot;&gt;Verify Signature&lt;/li&gt;&lt;li style=&quot;font-size: 16px;&quot;&gt;Decrypt File&lt;/li&gt;&lt;li style=&quot;font-size: 16px;&quot;&gt;Download File&lt;/li&gt;&lt;/ul&gt;" style="text;html=1;whiteSpace=wrap;overflow=hidden;rounded=0;fontStyle=1;fontSize=16;" vertex="1" parent="1">
          <mxGeometry x="60" y="-10" width="270" height="420" as="geometry" />
        </mxCell>
      </root>
    </mxGraphModel>
  </diagram>
</mxfile>
